<?xml version="1.0" encoding="utf-8"?>
<!-- Generator: Adobe Illustrator 24.3.0, SVG Export Plug-In . SVG Version: 6.00 Build 0)  -->
<svg version="1.1" id="Layer_1" xmlns="http://www.w3.org/2000/svg" xmlns:xlink="http://www.w3.org/1999/xlink" x="0px" y="0px"
	 viewBox="0 0 595.28 841.89" style="enable-background:new 0 0 595.28 841.89;" xml:space="preserve">
<style type="text/css">
	.st0{fill:#2A6EB6;}
	.st1{font-family:'AdobeSongStd-Light-GBpc-EUC-H';}
	.st2{font-size:48px;}
	.st3{stroke:#000000;stroke-width:0.25;stroke-miterlimit:10;}
	.st4{font-size:21px;}
</style>
<path class="st0" d="M307.83,383.65c5.96,13.29,12.02,26.54,17.79,39.92c1.2,2.78,2.67,3.48,5.51,3.55
	c2.84,0.07,3.95-1.02,5.01-3.45c5.86-13.44,11.91-26.8,18.81-40.05c0,12.69-0.04,25.38,0.04,38.07c0.01,1.74-1,4.61,0.71,5.02
	c2.97,0.72,6.28,0.31,9.4-0.02c0.98-0.1,0.65-1.72,0.65-2.69c0.01-19.99-0.03-39.98,0.06-59.97c0.01-2.45-0.8-3.01-3.14-3.1
	c-8.35-0.29-8.32-0.38-11.84,7.5c-6.46,14.47-12.95,28.92-19.85,44.32c-4.22-9.32-8.1-17.81-11.91-26.31
	c-3.39-7.55-6.7-15.13-10.09-22.68c-1.14-2.55-7.17-3.95-11.41-2.73c-3.06,0.88-1.43,3.39-1.44,5c-0.12,37.98-0.14,75.97,0,113.95
	c0.01,3.79-1.09,4.42-4.52,3.74c-39.78-7.85-66.1-30.96-74.79-70.62c-11.81-53.89,24.19-99.56,71.11-108.02
	c49.57-8.93,94.62,20.38,105.27,69.58c11.8,54.49-24.96,99.98-72.02,108.4c-4.57,0.82-10.42,3.03-13.39,0.7
	c-2.79-2.19-0.81-8.44-0.82-12.89c-0.07-27.49-0.04-54.98-0.04-82.47c0-1.58,0-3.16,0-4.74
	C307.24,383.66,307.54,383.66,307.83,383.65z M247.06,393.72c0,9.99,0.08,19.98-0.06,29.97c-0.04,2.57,0.58,3.72,3.29,3.35
	c1.31-0.18,2.69-0.21,3.99,0c3.25,0.53,3.84-0.96,3.76-3.9c-0.21-7.32,0.04-14.65-0.13-21.98c-0.06-2.59,0.66-3.45,3.31-3.35
	c5.15,0.2,10.33-0.12,15.48,0.12c3.43,0.16,3.22-1.83,3.19-4.1c-0.03-2.35,0.48-4.7-3.32-4.51c-5.15,0.25-10.32-0.03-15.48,0.1
	c-2.27,0.06-3.3-0.41-3.18-2.99c0.21-4.65,0.19-9.33,0.01-13.98c-0.1-2.59,0.66-3.45,3.33-3.38c6.99,0.18,13.99-0.11,20.98,0.14
	c3.11,0.11,4.07-0.76,3.85-3.87c-0.19-2.63,0.21-4.6-3.75-4.48c-10.48,0.33-20.98,0.23-31.47,0.04c-3.04-0.05-3.96,0.68-3.88,3.83
	C247.21,374.4,247.06,384.06,247.06,393.72z"/>
<text transform="matrix(1 0 0 1 253.2903 523.3556)" class="st1 st2">Faisal </text>
<text transform="matrix(1 0 0 1 275.5267 546.5345)" class="st3 st1 st4">Mobile</text>
</svg>
